<?xml version="1.0" encoding="UTF-8"?>
<svg id="Layer_1" data-name="Layer 1" xmlns="http://www.w3.org/2000/svg" viewBox="0 0 494.25 365.2">
  <path d="M10.33,195.95c0-26.29,14.61-40.9,40.9-40.9h8.77v87.65h-8.77c-26.29,0-40.9-14.61-40.9-40.9v-5.84ZM60,149.2c0-26.29,14.61-40.9,40.9-40.9h5.84v5.84c0,26.29-14.61,40.9-40.9,40.9h-5.84v-5.84ZM60,242.7h5.84c26.29,0,40.9,14.61,40.9,40.9v5.84h-5.84c-26.29,0-40.9-14.61-40.9-40.9v-5.84ZM106.74,108.3v-5.84c0-26.29,14.61-40.9,40.9-40.9h99.34v46.75H106.74ZM106.74,289.44h140.24v46.75h-99.34c-26.29,0-40.9-14.61-40.9-40.9v-5.84Z"/>
  <path d="M247.27,15.67h99.34c26.29,0,40.9,14.61,40.9,40.9v5.84h-140.24V15.67ZM247.27,243.56h140.24v5.84c0,26.29-14.61,40.9-40.9,40.9h-99.34v-46.75ZM387.51,62.42h5.84c26.29,0,40.9,14.61,40.9,40.9v5.84h-5.84c-26.3,0-40.9-14.61-40.9-40.9v-5.84ZM387.51,237.71c0-26.29,14.61-40.9,40.9-40.9h5.84v5.84c0,26.29-14.61,40.9-40.9,40.9h-5.84v-5.84ZM434.25,109.16h8.76c26.29,0,40.9,14.61,40.9,40.9v5.84c0,26.29-14.61,40.9-40.9,40.9h-8.76v-87.65Z"/>
  <path d="M119.63,177.08h127.16v45.88H106.84v-33.1c0-7.06,5.73-12.78,12.78-12.78Z"/>
  <path d="M259.57,131.19h127.16v45.88h-139.95v-33.1c0-7.06,5.73-12.78,12.78-12.78Z" transform="translate(633.52 308.27) rotate(180)"/>
</svg>